<svg xmlns="http://www.w3.org/2000/svg" viewBox="0 0 67 67" width="67" height="67">
	<style>
		tspan { white-space:pre }
		.shp0 { opacity: 0.722;fill: #f5c506 } 
		.shp1 { fill: #f5f4f2 } 
	</style>
	<path id="Ellipse 2" class="shp0" d="M33.5 0C52 0 67 15 67 33.5C67 52 52 67 33.5 67C15 67 0 52 0 33.5C0 15 15 0 33.5 0Z" />
	<path id="Shape 10" class="shp1" d="M27.01 19.12C27.01 18.22 27.44 17.58 28.3 17.21C29.16 16.84 29.93 16.99 30.6 17.65L45.4 32.47C45.82 32.9 46.02 33.4 46 33.99C46 34.56 45.8 35.05 45.4 35.46L30.6 50.34C29.93 51.02 29.16 51.16 28.3 50.78C27.44 50.41 27.01 49.76 27.01 48.82L27.01 19.12L27.01 19.12Z" />
</svg>