<svg xmlns="http://www.w3.org/2000/svg" viewBox="0 0 61 61" width="61" height="61">
	<style>
		tspan { white-space:pre }
		.shp0 { opacity: 0.722;fill: #f5c506 } 
		.shp1 { fill: #f5f4f2 } 
	</style>
	<path id="Ellipse 2 copy" class="shp0" d="M30.5 0C47.34 0 61 13.66 61 30.5C61 47.34 47.34 61 30.5 61C13.66 61 0 47.34 0 30.5C0 13.66 13.66 0 30.5 0Z" />
	<path id="Shape 10 copy" class="shp1" d="M24.59 17.4C24.59 16.58 24.98 16 25.76 15.67C26.55 15.33 27.25 15.47 27.86 16.07L41.33 29.57C41.72 29.95 41.9 30.41 41.88 30.95C41.88 31.47 41.7 31.91 41.33 32.28L27.86 45.83C27.25 46.45 26.55 46.58 25.76 46.23C24.98 45.9 24.59 45.3 24.59 44.45L24.59 17.4L24.59 17.4Z" />
</svg>